<?xml version="1.0" encoding="UTF-8"?>
<svg xmlns="http://www.w3.org/2000/svg" id="Layer_2" data-name="Layer 2" viewBox="0 0 512 512" style="background: transparent;">
  <defs>
    <style>
      .cls-1 {
        fill: #fff;
      }

      .cls-2 {
        fill: #f2f2f2;
        isolation: isolate;
      }

      .cls-3 {
        fill: #c03355;
      }
    </style>
  </defs>
  <g id="Layer_1-2" data-name="Layer 1">
    
    <g>
      <path class="cls-2" d="M300.36,248.23c-1.34,3.25-2.92,6.41-4.64,9.52l65.72,65.73c2.03,2.03,2.03,5.34,0,7.38-1.01,1.02-2.36,1.54-3.68,1.54s-2.68-.52-3.7-1.54l-64.06-64.06c-3.15,4.47-6.63,8.76-10.62,12.76-9.11,9.12-19.71,16.19-31.25,21.04l11.29,11.3,19.52,9.21,5.21,15.5,11.79,11.79,16.05,3.92,5.63,17.76,13.9,13.91,20.27-4.8-59.66-59.65c-2.03-2.03-2.03-5.34,0-7.38,2.03-2.04,5.34-2.03,7.38,0l64.21,64.21,10.09-2.4,10.01-42.3-83.46-83.45Z"/>
      <path class="cls-1" d="M268.33,152.37c-32.06-32.06-84.06-32.06-116.12,0-32.05,32.05-32.05,84.05,0,116.11,32.06,32.05,84.06,32.05,116.11,0,32.06-32.06,32.06-84.05.01-116.11ZM173.13,173.29c8.49-8.5,22.25-8.49,30.75,0,8.49,8.49,8.49,22.25,0,30.74-8.5,8.49-22.25,8.49-30.75,0-8.49-8.49-8.49-22.25,0-30.74ZM210.18,272.68c-10.46,0-20.98-2.61-30.5-7.99-2.51-1.42-3.4-4.61-1.99-7.11,1.43-2.51,4.61-3.39,7.11-1.98,20.17,11.38,45.73,7.89,62.12-8.51,16.41-16.4,19.92-41.95,8.51-62.13-1.41-2.51-.53-5.69,1.98-7.1,2.53-1.43,5.69-.54,7.12,1.98,13.68,24.24,9.48,54.93-10.22,74.65-11.96,11.94-27.98,18.19-44.13,18.19Z"/>
    </g>
  </g>
</svg>